<svg xmlns="http://www.w3.org/2000/svg" data-name="Layer 1" viewBox="0 0 100 125" x="0px" y="0px"><title>Artboard 9</title><path d="M82.5,32.84H65.61V28a6.51,6.51,0,0,0-6.5-6.5H41.78a6.51,6.51,0,0,0-6.5,6.5v4.84H18.5a7.51,7.51,0,0,0-7.5,7.5V78.64a7.51,7.51,0,0,0,7.5,7.5h64a7.51,7.51,0,0,0,7.5-7.5V40.34A7.51,7.51,0,0,0,82.5,32.84ZM38.28,28a3.5,3.5,0,0,1,3.5-3.5H59.11a3.5,3.5,0,0,1,3.5,3.5v4.84H38.28ZM87,78.64a4.5,4.5,0,0,1-4.5,4.5h-64a4.5,4.5,0,0,1-4.5-4.5V55.9L42.94,60v1a6.51,6.51,0,0,0,6.5,6.5h3.19a6.51,6.51,0,0,0,6.5-6.5v-1.2L87,56ZM45.94,61V57.8a3.5,3.5,0,0,1,3.5-3.5h3.19a3.5,3.5,0,0,1,3.5,3.5V61a3.5,3.5,0,0,1-3.5,3.5H49.44A3.5,3.5,0,0,1,45.94,61ZM87,52.92,59,56.78a6.5,6.5,0,0,0-6.41-5.48H49.44A6.51,6.51,0,0,0,43,56.94L14,52.88V40.34a4.5,4.5,0,0,1,4.5-4.5h64a4.5,4.5,0,0,1,4.5,4.5Z"/><text x="0" y="115" fill="#000000" font-size="5px" font-weight="bold" font-family="'Helvetica Neue', Helvetica, Arial-Unicode, Arial, Sans-serif">Created by Bernar  Novalyi</text><text x="0" y="120" fill="#000000" font-size="5px" font-weight="bold" font-family="'Helvetica Neue', Helvetica, Arial-Unicode, Arial, Sans-serif">from the Noun Project</text></svg>