<svg xmlns="http://www.w3.org/2000/svg" xmlns:xlink="http://www.w3.org/1999/xlink" version="1.1" x="0px" y="0px" viewBox="0 0 64 80" style="enable-background:new 0 0 64 64;" xml:space="preserve"><g><polygon points="50,62 48,62 48,35 32,35 32,62 30,62 30,33 50,33  "/></g><path d="M60,11V7h-7V2h-2v5h-7v4h-2v20h2V13h16v49h2V11H60z M46,9h12v2H46V9z"/><g><path d="M34,29H22v-6h12V29z M24,27h8v-2h-8V27z"/></g><g><path d="M46,43H34v-6h12V43z M36,41h8v-2h-8V41z"/></g><g><path d="M58,21H46v-6h12V21z M48,19h8v-2h-8V19z"/></g><g><path d="M58,29H46v-6h12V29z M48,27h8v-2h-8V27z"/></g><g><path d="M46,51H34v-6h12V51z M36,49h8v-2h-8V49z"/></g><g><path d="M46,59H34v-6h12V59z M36,57h8v-2h-8V57z"/></g><g><polygon points="28,37 22,37 22,31 28,31 28,33 24,33 24,35 28,35  "/></g><g><polygon points="28,45 22,45 22,39 28,39 28,41 24,41 24,43 28,43  "/></g><g><polygon points="28,53 22,53 22,47 28,47 28,49 24,49 24,51 28,51  "/></g><g><path d="M16,25.8c-0.3,0.1-0.6,0.2-1,0.2c-1.7,0-2.9-1.5-3.8-3.6c1.6-0.3,3.2-0.4,4.8-0.3v-2c-1.8-0.1-3.6,0-5.4,0.4   C10.3,19.1,10,17.6,10,16h8v-2h-8c0.1-1.6,0.3-3.1,0.6-4.5C12.1,9.8,13.5,10,15,10s2.9-0.2,4.4-0.5c0.3,1.1,0.4,2.3,0.5,3.5h2   c-0.1-1.4-0.3-2.7-0.6-3.9c0.8-0.2,1.6-0.5,2.3-0.8c0.5,0.7,1,1.4,1.3,2.2V6.7C22.6,3.8,19,2,15,2c-0.1,0-0.3,0-0.4,0   C7.6,2.3,2,8,2,15c0,7.2,5.8,13,13,13c0.1,0,0.3,0,0.4,0c0.2,0,0.4,0,0.6,0V25.8z M22.2,6.7c-0.5,0.2-1,0.3-1.4,0.5   c-0.3-0.7-0.6-1.4-1-2.1C20.6,5.5,21.4,6,22.2,6.7z M11.4,7.2C12.1,5.7,13.2,4,15,4c1.7,0,2.9,1.5,3.8,3.6c-2.5,0.5-5,0.5-7.5,0   C11.3,7.5,11.3,7.3,11.4,7.2z M10.2,5.1C10,5.5,9.8,5.9,9.6,6.3C9.5,6.6,9.4,6.9,9.3,7.1C8.8,7,8.3,6.8,7.8,6.7   C8.6,6,9.4,5.5,10.2,5.1z M6.3,8.2C7.1,8.5,7.9,8.8,8.6,9c-0.3,1.6-0.5,3.2-0.6,5H4C4.2,11.8,5.1,9.9,6.3,8.2z M4.1,16h4   c0.1,1.7,0.3,3.4,0.7,4.9c-0.8,0.2-1.6,0.5-2.3,0.8C5.1,20.1,4.2,18.2,4.1,16z M7.8,23.3c0.5-0.2,1-0.3,1.4-0.5   c0.3,0.7,0.6,1.4,1,2.1C9.4,24.5,8.6,24,7.8,23.3z"/></g><path d="M36,19v-4h-7V9h-2v6h-7v4h-2v43h2V21h16v10h2V19H36z M22,17h12v2H22V17z"/><polygon points="52,47 52,49 56,49 56,51 52,51 52,53 58,53 58,47 "/><polygon points="52,39 52,41 56,41 56,43 52,43 52,45 58,45 58,39 "/><polygon points="52,31 52,33 56,33 56,35 52,35 52,37 58,37 58,31 "/></svg>