<svg xmlns="http://www.w3.org/2000/svg" xmlns:xlink="http://www.w3.org/1999/xlink" version="1.1" x="0px" y="0px" viewBox="1 -1 100 125" style="enable-background:new 1 -1 100 100;" xml:space="preserve"><g><path d="M50.9,14.4c-0.9,0-1.5,0.6-1.5,1.5v43.7L36.8,46.9c-0.6-0.6-1.5-0.6-2.1,0s-0.6,1.5,0,2.1l15.2,15.2   c0.1,0.1,0.3,0.3,0.4,0.3s0.3,0.1,0.6,0.1l0,0l0,0c0.1,0,0.4,0,0.6-0.1c0.1,0,0.3-0.1,0.4-0.3L67.1,49c0.6-0.6,0.6-1.5,0-2.1   s-1.5-0.6-2.1,0L52.4,59.6V15.9C52.4,15,51.8,14.4,50.9,14.4z"/><path d="M16.2,83.6h69.6c2.5,0,4.4-1.9,4.4-4.4v-8.1c0-0.9-0.6-1.5-1.5-1.5c-0.9,0-1.5,0.6-1.5,1.5v8.1c0,0.9-0.6,1.5-1.5,1.5H16.2   c-0.9,0-1.5-0.6-1.5-1.5v-8.1c0-0.9-0.6-1.5-1.5-1.5c-0.9,0-1.5,0.6-1.5,1.5v8.1C11.8,81.7,13.7,83.6,16.2,83.6z"/></g></svg>