<svg xmlns="http://www.w3.org/2000/svg" xmlns:xlink="http://www.w3.org/1999/xlink" version="1.1" x="0px" y="0px" viewBox="0 0 110 137.5" enable-background="new 0 0 110 110" xml:space="preserve"><path d="M83.5,44H78v-5c0-2.2-1.8-4-4-4H59c-3.3,0-7.35-1.58-9-3.5l-0.4-0.46C48.17,29.37,45.2,28,43,28H25c-2.2,0-4,1.8-4,4v46  c0,2.2,1.8,4,4,4h47c0.4,0,0.81-0.04,1.21-0.12c1.65-0.29,3.25-1.17,4.49-2.37C77.81,79.4,77.91,79.3,78,79.19  c0.8-0.86,1.42-1.86,1.74-2.931l8.02-26.52C88.72,46.58,86.8,44,83.5,44z M23,32c0-1.1,0.9-2,2-2h18c1.61,0,4.04,1.11,5.08,2.34  l0.8,0.92C50.7,35.39,54.2,37,57,37h17c1.1,0,2,0.9,2,2v5H38.5c-3.3,0-6.78,2.58-7.74,5.74L23,75.4V32z M85.85,49.16L78,75.12  l-0.17,0.56c-0.311,1-1,1.95-1.87,2.7c-1.03,0.88-2.31,1.49-3.55,1.601C72.27,79.99,72.14,80,72,80H27c-0.14,0-0.28-0.01-0.41-0.02  c-0.09-0.011-0.18-0.021-0.26-0.04c-0.11-0.021-0.21-0.04-0.31-0.07c-0.49-0.14-0.88-0.39-1.14-0.75c-0.42-0.57-0.5-1.38-0.23-2.28  l8.03-26.52c0.69-2.3,3.41-4.32,5.82-4.32h45c0.95,0,1.7,0.31,2.12,0.88C86.04,47.45,86.12,48.26,85.85,49.16z"/></svg>