<svg width="430" height="90" xmlns="http://www.w3.org/2000/svg">
 <!---->

 <!---->
 <!---->
 <!---->
 <g>
  <title>background</title>
  <rect fill="none" id="canvas_background" height="402" width="582" y="-1" x="-1"/>
 </g>
 <g>
  <title>Layer 1</title>
  <g transform="matrix(4.761904978157451,0,0,4.761904978157451,94.2006924917369,14.333334388004406) " fill="white" id="cad91bb5-f111-bbfd-de8f-1d3e4e46cd51">
   <path fill="#4b81eb" id="svg_1" d="m4.53,5.46c-0.64,0 -1.24,0.25 -1.71,0.65l0,-5.97l-1.66,0l0,12.46l1.66,0l0,-4.22c0,-0.75 0.59,-1.38 1.35,-1.38c0.73,0 1.31,0.58 1.31,1.31l0,4.29l1.66,0l0,-4.44c0,-1.53 -1.15,-2.7 -2.61,-2.7zm11.75,3.61c-0.04,-2.1 -1.58,-3.61 -3.7,-3.61c-2.13,0 -3.74,1.54 -3.74,3.64c0,2.1 1.59,3.64 3.76,3.64c1.8,0 3.15,-1.07 3.55,-2.59l-1.66,0c-0.3,0.74 -1,1.21 -1.89,1.21c-1.17,0 -1.99,-0.82 -2.08,-2l5.74,0l0.02,-0.29zm-3.68,-2.21c0.91,0 1.56,0.51 1.86,1.31l-3.8,0c0.31,-0.78 1,-1.31 1.94,-1.31zm5.44,5.74l1.67,0l0,-12.46l-1.67,0l0,12.46zm3.98,0l1.66,0l0,-12.46l-1.66,0l0,12.46zm7.24,0.14c2.17,0 3.76,-1.59 3.76,-3.64c0,-2.05 -1.59,-3.64 -3.76,-3.64c-2.17,0 -3.76,1.59 -3.76,3.64c0,2.05 1.59,3.64 3.76,3.64zm0,-1.54c-1.19,0 -2.1,-0.93 -2.1,-2.1c0,-1.17 0.91,-2.1 2.1,-2.1c1.17,0 2.1,0.93 2.1,2.1c0,1.17 -0.93,2.1 -2.1,2.1zm9.29,-4.2l0,-1.4l-1.77,0l0,-2.87l-1.66,0l0,2.87l-1.15,0l0,1.4l1.15,0l0,3.43c0,1.3 1.11,2.31 2.38,2.31c0.41,0 0.84,-0.1 1.02,-0.23l0,-1.27l-0.81,0c-0.52,0 -0.93,-0.39 -0.93,-1l0,-3.24l1.77,0zm8.56,2.07c-0.03,-2.1 -1.57,-3.61 -3.69,-3.61c-2.14,0 -3.75,1.54 -3.75,3.64c0,2.1 1.6,3.64 3.77,3.64c1.8,0 3.15,-1.07 3.55,-2.59l-1.66,0c-0.3,0.74 -1,1.21 -1.89,1.21c-1.18,0 -2,-0.82 -2.09,-2l5.74,0l0.02,-0.29zm-3.67,-2.21c0.9,0 1.55,0.51 1.85,1.31l-3.8,0c0.32,-0.78 1,-1.31 1.95,-1.31zm8.9,-1.4c-0.7,0 -1.33,0.3 -1.8,0.81l0,-0.67l-1.66,0l0,7l1.66,0l0,-4.27c0,-0.75 0.6,-1.33 1.37,-1.33c0.77,0 1.34,0.58 1.34,1.33l0,4.27l1.65,0l0,-4.44c0,-1.53 -1.19,-2.7 -2.56,-2.7zm8.02,7.28c2.17,0 3.76,-1.59 3.76,-3.64c0,-2.05 -1.59,-3.64 -3.76,-3.64c-2.17,0 -3.76,1.59 -3.76,3.64c0,2.05 1.59,3.64 3.76,3.64zm0,-1.54c-1.19,0 -2.1,-0.93 -2.1,-2.1c0,-1.17 0.91,-2.1 2.1,-2.1c1.17,0 2.1,0.93 2.1,2.1c0,1.17 -0.93,2.1 -2.1,2.1zm9.4,-5.74c-0.91,0 -1.67,0.42 -2.16,1.1l0,-0.96l-1.66,0l0,7l1.66,0l0,-3.55c0,-1.23 0.91,-2.05 2.12,-2.05c0.23,0 0.42,0.04 0.6,0.07l0,-1.56c-0.18,-0.03 -0.37,-0.05 -0.56,-0.05z"/>
  </g>
  <g fill="white" transform="matrix(0.9536423841059603,0,0,0.9536423841059603,-7.47748248624486,-1.8690397660463844) " id="cb07f240-fdb8-45db-6e97-02ea7fb3dfc4">
   <polygon fill="#4b81eb" id="svg_2" points="63.3,52.3 72.4,52.3 67.9,42.5 "/>
   <path fill="#4b81eb" id="svg_3" d="m88.3,23.8l-34.6,-20c-2.2,-1.3 -5,-1.3 -7.2,0l-34.6,20c-2.2,1.3 -3.6,3.7 -3.6,6.2l0,40c0,2.6 1.4,5 3.6,6.2l34.6,20c1.1,0.6 2.3,1 3.6,1s2.5,-0.3 3.6,-1l34.6,-20c2.2,-1.3 3.6,-3.7 3.6,-6.2l0,-40c0,-2.5 -1.4,-4.9 -3.6,-6.2zm-56.2,7.2c0.1,0 0.2,0 0.2,0l16.6,0l0,-5.4c0,-0.7 0.5,-1.2 1.2,-1.2c0.7,0 1.2,0.5 1.2,1.2l0,5.4l16.6,0c0.1,0 0.2,0 0.2,0c1.6,0.1 2.8,1.4 2.8,3c0,1.7 -1.4,3 -3,3c-1.7,0 -3,-1.4 -3,-3c0,-0.2 0,-0.4 0.1,-0.6l-13.7,0l0,34.7l8.1,0c0.7,0 1.2,0.5 1.2,1.2c0,0.7 -0.5,1.2 -1.2,1.2l-18.6,0c-0.7,0 -1.2,-0.5 -1.2,-1.2c0,-0.7 0.5,-1.2 1.2,-1.2l8.1,0l0,-34.7l-13.7,0c0,0.2 0.1,0.4 0.1,0.6c0,1.7 -1.4,3 -3,3c-1.7,0 -3,-1.4 -3,-3c0,-1.5 1.2,-2.8 2.8,-3zm0.2,28.7c-0.1,0 -0.2,0 -0.3,0c0,0 -0.1,0 -0.1,0c-4.1,-0.2 -7.4,-2.9 -7.4,-6.2c0,0 0,0 0,0c0,0 0,-0.1 0,-0.1c0,0 0,-0.1 0,-0.1c0,0 0,-0.1 0,-0.1c0,0 0,-0.1 0,-0.1c0,0 0,0 0,0l6.6,-13.8c0.2,-0.4 0.6,-0.7 1.1,-0.7c0.5,0 0.9,0.3 1.1,0.7l6.4,13.7c0,0 0,0 0,0c0,0 0,0.1 0,0.1c0,0 0,0.1 0,0.1c0,0 0,0.1 0,0.1c0,0 0,0.1 0,0.1c0,0 0,0 0,0c0,3.3 -3.3,6.1 -7.4,6.2c0.1,0.1 0,0.1 0,0.1zm31.7,14.7l-27.8,0c-0.7,0 -1.2,-0.5 -1.2,-1.2c0,-0.7 0.5,-1.2 1.2,-1.2l27.8,0c0.7,0 1.2,0.5 1.2,1.2c0,0.7 -0.5,1.2 -1.2,1.2zm4.1,-14.7c0,0 -0.1,0 -0.1,0c-0.1,0 -0.2,0 -0.3,0c0,0 -0.1,0 -0.1,0c-4.1,-0.2 -7.4,-2.9 -7.4,-6.2c0,0 0,0 0,0c0,0 0,-0.1 0,-0.1c0,0 0,-0.1 0,-0.1c0,0 0,-0.1 0,-0.1c0,0 0,-0.1 0,-0.1c0,0 0,0 0,0l6.5,-13.8c0.2,-0.4 0.6,-0.7 1.1,-0.7c0.5,0 0.9,0.3 1.1,0.7l6.5,13.7c0,0 0,0 0,0c0,0 0,0.1 0,0.1c0,0 0,0.1 0,0.1c0,0 0,0.1 0,0.1c0,0 0,0.1 0,0.1c0,0 0,0 0,0c0.1,3.4 -3.2,6.2 -7.3,6.3z"/>
   <polygon fill="#4b81eb" id="svg_4" points="27.6,52.3 36.8,52.3 32.3,42.5 "/>
  </g>
 </g>
</svg>